#!OML:ASF H:\Male1\Project 1\Capture day 1\Session 1\Male1.ASF
:FULLY-SPECIFIED
:DEGREES
273
root 10.9031 15.2537 1.35792 170.137 -264.406 -189.932
lowerback 8.42318 0.237748 -0.558823
upperback 4.11676 0.384544 -0.655067
thorax -0.464418 0.241377 -0.394213
lowerneck -7.74123 4.15028 6.78275
upperneck 0.0490292 5.12209 -6.25757
head 1.75446 2.46041 -3.0247
rclavicle -5.46658e-015 -1.39149e-014
rhumerus -44.2175 3.75133 -85.286
rradius 45.7811
rwrist -26.1969
rhand -30.6362 2.44352
rfingers 7.12502
rthumb -3.93184 -27.5
lclavicle -5.46658e-015 -1.39149e-014
lhumerus -36.9986 -12.8418 89.0596
lradius 41.0073
lwrist 5.53115
lhand -21.7759 10.8286
lfingers 7.12502
lthumb 4.62519 40.7581
rfemur -12.1915 19.715 23.0069
rtibia 31.9348
rfoot -22.5769 -24.7374
rtoes -35.0446
lfemur -10.5296 -16.0361 -19.9916
ltibia 33.9979
lfoot -25.0877 18.1529
ltoes -9.42787
274
root 10.8972 15.2476 1.35437 166.186 -264.244 -193.836
lowerback 8.65468 0.156332 -0.191958
upperback 4.14467 0.306189 -0.513451
thorax -0.562388 0.20648 -0.448887
lowerneck -7.66405 4.23246 7.05715
upperneck -0.0363718 5.22003 -6.58639
head 1.74283 2.50508 -3.18623
rclavicle -1.68967e-015 0
rhumerus -44.2746 3.85378 -85.2422
rradius 45.894
rwrist -26.2238
rhand -30.9598 2.75899
rfingers 7.12502
rthumb -4.24436 -27.1785
lclavicle -1.68967e-015 0
lhumerus -37.3711 -13.3922 89.2607
lradius 40.9709
lwrist 5.48403
lhand -21.6984 10.9478
lfingers 7.12502
lthumb 4.69999 40.8757
rfemur -12.1702 19.7539 23.4576
rtibia 31.9596
rfoot -22.5874 -24.6446
rtoes -35.3911
lfemur -10.636 -15.7828 -19.541
ltibia 34.3215
lfoot -25.3418 17.9279
ltoes -9.58122
275
root 10.8904 15.2426 1.35207 165.596 -264.141 -194.424
lowerback 8.92488 0.150405 -0.096928
upperback 4.16676 0.307911 -0.483788
thorax -0.687709 0.209418 -0.473368
lowerneck -7.53871 4.29213 7.01537
upperneck -0.326248 5.30367 -6.58618
head 1.62907 2.54985 -3.17616
rclavicle -1.39149e-015 0
rhumerus -44.2448 3.77542 -85.1077
rradius 45.9339
rwrist -26.2591
rhand -31.1159 2.98326
rfingers 7.12502
rthumb -4.39504 -26.9511
lclavicle -1.39149e-015 0
lhumerus -37.7919 -14.1907 89.5124
lradius 41.0318
lwrist 5.5104
lhand -21.5032 11.1436
lfingers 7.12502
lthumb 4.88845 41.0672
rfemur -12.2538 19.7455 23.5291
rtibia 32.0346
rfoot -22.6243 -24.5637
rtoes -35.637
lfemur -10.7875 -15.5548 -19.4355
ltibia 34.579
lfoot -25.5295 17.7901
ltoes -10.0402
276
root 10.8808 15.2372 1.34883 167.607 -264.158 -192.422
lowerback 9.26678 0.170166 -0.223249
upperback 4.20559 0.326131 -0.557386
thorax -0.835121 0.219688 -0.481944
lowerneck -7.5588 4.29317 6.96417
upperneck -0.553381 5.3034 -6.58281
head 1.5558 2.55082 -3.16543
rclavicle 1.2921e-015 -4.77083e-015
rhumerus -44.1822 3.52857 -84.928
rradius 46.0286
rwrist -26.2882
rhand -31.1134 3.18176
rfingers 7.12502
rthumb -4.39268 -26.7527
lclavicle 1.2921e-015 -4.77083e-015
lhumerus -38.1915 -15.2651 89.7753
lradius 41.1347
lwrist 5.69208
lhand -21.4521 11.2838
lfingers 7.12502
lthumb 4.93785 41.2063
rfemur -12.4164 19.6432 23.2768
rtibia 32.1916
rfoot -22.6609 -24.5331
rtoes -36.0086
lfemur -10.9171 -15.3917 -19.6433
ltibia 34.7372
lfoot -25.6966 17.6725
ltoes -10.4758
277
root 10.8711 15.2329 1.34464 169.245 -264.116 -190.851
lowerback 9.5999 0.187652 -0.301752
upperback 4.27327 0.345912 -0.616007
thorax -0.947462 0.231714 -0.502185
lowerneck -7.99157 4.19587 7.07077
upperneck -0.41458 5.15089 -6.81171
head 1.68149 2.46465 -3.26628
rclavicle 1.2424e-014 -6.75868e-015
rhumerus -44.0787 3.27672 -84.7079
rradius 46.1745
rwrist -26.2952
rhand -31.0776 3.03617
rfingers 7.12502
rthumb -4.35811 -26.899
lclavicle 1.2424e-014 -6.75868e-015
lhumerus -38.5832 -16.3953 90.0044
lradius 41.2935
lwrist 5.98654
lhand -21.684 11.2603
lfingers 7.12502
lthumb 4.71389 41.1878
rfemur -12.6972 19.6074 23.0531
rtibia 32.4352
rfoot -22.7642 -24.4787
rtoes -36.3381
lfemur -11.128 -15.2416 -19.7626
ltibia 34.8204
lfoot -25.824 17.5832
ltoes -10.7869
278
root 10.8616 15.2308 1.34034 170.413 -264.033 -189.831
lowerback 9.92501 0.172779 -0.400194
upperback 4.30221 0.31908 -0.625587
thorax -1.09595 0.21906 -0.455975
lowerneck -7.7794 4.19534 6.94778
upperneck -0.852849 5.16239 -6.80182
head 1.49473 2.4762 -3.2423
rclavicle 6.55989e-015 9.93923e-015
rhumerus -43.9969 3.16321 -84.4479
rradius 46.3305
rwrist -26.259
rhand -31.0204 2.20531
rfingers 7.12502
rthumb -4.30288 -27.731
lclavicle 6.55989e-015 9.93923e-015
lhumerus -39.1423 -17.1901 90.1407
lradius 41.5829
lwrist 5.9862
lhand -21.8085 10.9914
lfingers 7.12502
lthumb 4.59369 40.9216
rfemur -13.091 19.6488 22.8598
rtibia 32.7147
rfoot -22.875 -24.4464
rtoes -36.723
lfemur -11.4575 -15.0999 -19.7851
ltibia 34.9002
lfoot -25.8602 17.5296
ltoes -11.1681
279
root 10.8475 15.2296 1.33342 172.217 -263.97 -188.204
lowerback 10.2813 0.153806 -0.560678
upperback 4.34164 0.280582 -0.657398
thorax -1.25041 0.20069 -0.396477
lowerneck -7.61038 4.1774 7.28144
upperneck -1.21677 5.12254 -7.30798
head 1.37371 2.45312 -3.48735
rclavicle 2.03754e-014 1.59028e-015
rhumerus -43.997 3.11131 -84.2031
rradius 46.7561
rwrist -26.335
rhand -31.1046 1.34268
rfingers 7.12502
rthumb -4.38413 -28.5919
lclavicle 2.03754e-014 1.59028e-015
lhumerus -39.7626 -17.8277 90.164
lradius 41.9755
lwrist 5.78741
lhand -21.502 10.9802
lfingers 7.12502
lthumb 4.88963 40.9038
rfemur -13.5415 19.6308 22.563
rtibia 32.9983
rfoot -22.9228 -24.4545
rtoes -37.2106
lfemur -11.7671 -14.8527 -19.895
ltibia 35.0048
lfoot -25.8554 17.335
ltoes -11.4131
280
root 10.8262 15.2257 1.32408 173.914 -263.93 -186.677
lowerback 10.7289 0.117679 -0.697629
upperback 4.47824 0.225142 -0.712326
thorax -1.35311 0.176624 -0.371998
lowerneck -7.19007 4.27665 7.33205
upperneck -1.97211 5.26001 -7.55112
head 1.0733 2.53068 -3.58468
rclavicle 3.67752e-015 -5.1684e-015
rhumerus -43.979 3.2009 -84.02
rradius 47.4411
rwrist -26.6944
rhand -31.4074 0.537133
rfingers 7.12502
rthumb -4.67656 -29.3913
lclavicle 3.67752e-015 -5.1684e-015
lhumerus -40.4074 -18.5383 90.1024
lradius 42.5498
lwrist 5.90835
lhand -21.3526 10.9834
lfingers 7.12502
lthumb 5.0339 40.9036
rfemur -13.9972 19.5265 22.2669
rtibia 33.2931
rfoot -23.0805 -24.3529
rtoes -37.3774
lfemur -12.1339 -14.6483 -19.9997
ltibia 35.137
lfoot -25.7719 17.1077
ltoes -11.7097
281
root 10.8023 15.2209 1.31569 175.179 -263.929 -185.564
lowerback 11.3047 0.051908 -0.87372
upperback 4.6954 0.130617 -0.721
thorax -1.44102 0.13441 -0.27268
lowerneck -7.20512 4.34669 7.24537
upperneck -2.49194 5.35018 -7.7338
head 0.917539 2.5796 -3.63027
rclavicle -8.74653e-015 -2.78299e-015
rhumerus -43.8423 3.45399 -83.751
rradius 48.1313
rwrist -27.1256
rhand -31.7238 -0.482869
rfingers 7.12502
rthumb -4.982 -30.4043
lclavicle -8.74653e-015 -2.78299e-015
lhumerus -41.1609 -19.2929 90.0962
lradius 43.3152
lwrist 6.40688
lhand -21.8379 10.7701
lfingers 7.12502
lthumb 4.56531 40.7009
rfemur -14.433 19.4134 22.0262
rtibia 33.5843
rfoot -23.2453 -24.2238
rtoes -37.5718
lfemur -12.6135 -14.6666 -20.0574
ltibia 35.3186
lfoot -25.6682 17.0088
ltoes -12.2529
282
root 10.777 15.2181 1.3065 176.181 -263.802 -184.733
lowerback 11.9801 0.0376665 -1.00481
upperback 4.93306 0.108601 -0.730604
thorax -1.55989 0.129863 -0.208166
lowerneck -7.36078 4.36097 7.27625
upperneck -2.93186 5.35279 -8.07123
head 0.815929 2.58107 -3.75466
rclavicle -1.27222e-014 -3.18055e-015
rhumerus -43.6802 3.56487 -83.3425
rradius 48.8662
rwrist -27.319
rhand -31.7438 -0.887123
rfingers 7.12502
rthumb -5.00133 -30.8081
lclavicle -1.27222e-014 -3.18055e-015
lhumerus -42.0204 -20.2034 90.1519
lradius 44.179
lwrist 7.06311
lhand -22.694 10.6301
lfingers 7.12502
lthumb 3.73859 40.5771
rfemur -14.9364 19.3985 21.8043
rtibia 33.8633
rfoot -23.1853 -24.0881
rtoes -37.9654
lfemur -13.1042 -14.6668 -20.0932
ltibia 35.5522
lfoot -25.6469 17.0175
ltoes -12.3301
283
root 10.7457 15.2178 1.29596 176.077 -263.574 -185.078
lowerback 12.687 0.0364023 -0.882564
upperback 5.19077 0.131365 -0.826885
thorax -1.67298 0.152079 -0.382391
lowerneck -6.92648 4.41061 7.40824
upperneck -3.89049 5.40847 -8.37624
head 0.447403 2.62413 -3.90177
rclavicle -1.13307e-014 1.98785e-015
rhumerus -43.5709 3.58069 -83.0171
rradius 49.7879
rwrist -27.3467
rhand -31.6149 -0.758774
rfingers 7.12502
rthumb -4.8769 -30.6826
lclavicle -1.13307e-014 1.98785e-015
lhumerus -43.031 -21.2224 90.0426
lradius 45.2002
lwrist 7.75824
lhand -23.6041 10.4555
lfingers 7.12502
lthumb 2.8597 40.4161
rfemur -15.5503 19.4685 21.6939
rtibia 34.118
rfoot -23.0044 -23.8463
rtoes -38.0567
lfemur -13.6835 -14.5086 -19.9647
ltibia 35.8651
lfoot -25.5041 16.9522
ltoes -11.7593
284
root 10.7078 15.2193 1.28528 175.797 -263.487 -185.706
lowerback 13.3985 -0.054253 -0.752043
upperback 5.45613 0.0399519 -0.942539
thorax -1.77862 0.11871 -0.565677
lowerneck -6.45022 4.48372 7.62769
upperneck -4.90072 5.48948 -8.67614
head 0.0596501 2.68148 -4.06996
rclavicle 1.30204e-014 3.18055e-015
rhumerus -43.5406 4.01471 -82.784
rradius 50.94
rwrist -27.455
rhand -31.5824 -0.858312
rfingers 7.12502
rthumb -4.84554 -30.7829
lclavicle 1.30204e-014 3.18055e-015
lhumerus -44.361 -22.0974 89.8686
lradius 46.5039
lwrist 8.54918
lhand -24.6976 10.3655
lfingers 7.12502
lthumb 1.8036 40.3376
rfemur -16.2924 19.4669 21.572
rtibia 34.3629
rfoot -22.9387 -23.5147
rtoes -37.9536
lfemur -14.4795 -14.3184 -19.7575
ltibia 36.2851
lfoot -25.3126 16.7343
ltoes -11.5326
285
root 10.6639 15.22 1.27431 174.786 -263.527 -187.191
lowerback 14.2961 -0.206717 -0.709689
upperback 5.65089 -0.143299 -0.935735
thorax -2.05647 0.0374312 -0.556988
lowerneck -6.53149 4.59729 7.73369
upperneck -5.3146 5.61772 -9.08193
head -0.0313347 2.75007 -4.23449
rclavicle 2.08724e-014 1.59028e-015
rhumerus -43.6911 4.90689 -82.4305
rradius 52.2754
rwrist -27.7639
rhand -31.5915 -0.929333
rfingers 7.12502
rthumb -4.8543 -30.8537
lclavicle 2.08724e-014 1.59028e-015
lhumerus -46.0862 -22.846 89.8971
lradius 48.074
lwrist 9.50224
lhand -26.0631 10.5342
lfingers 7.12502
lthumb 0.484845 40.5134
rfemur -17.2047 19.3705 21.5009
rtibia 34.6498
rfoot -23.036 -23.1321
rtoes -37.977
lfemur -15.5221 -14.1186 -19.4001
ltibia 36.8042
lfoot -25.1958 16.4313
ltoes -12.0005
286
root 10.6147 15.2176 1.26462 173.347 -263.563 -189.163
lowerback 15.4179 -0.32007 -0.700756
upperback 5.80676 -0.278495 -0.882213
thorax -2.4908 -0.0197208 -0.484818
lowerneck -6.01459 4.6444 7.95014
upperneck -6.32124 5.66163 -9.55349
head -0.424146 2.79394 -4.47549
rclavicle -1.25234e-014 -1.98785e-015
rhumerus -44.0756 5.71417 -81.846
rradius 53.8755
rwrist -28.0197
rhand -31.4551 -1.02758
rfingers 7.12502
rthumb -4.72257 -30.9549
lclavicle -1.25234e-014 -1.98785e-015
lhumerus -48.0863 -23.7468 90.1257
lradius 49.742
lwrist 10.5417
lhand -27.5929 10.7128
lfingers 7.12502
lthumb -0.992763 40.6902
rfemur -18.2344 19.3031 21.4781
rtibia 35.0195
rfoot -23.1688 -22.712
rtoes -38.1731
lfemur -16.7365 -13.8519 -18.9403
ltibia 37.4083
lfoot -25.0863 15.9835
ltoes -12.0014
287
root 10.5589 15.2104 1.25781 173.901 -263.497 -189.147
lowerback 16.564 -0.336752 -0.98347
upperback 6.07578 -0.323531 -0.895338
thorax -2.81142 -0.0303614 -0.330607
lowerneck -5.67149 4.63758 7.96523
upperneck -7.37722 5.63692 -9.78654
head -0.826287 2.80672 -4.59573
rclavicle -7.55382e-015 -1.70955e-014
rhumerus -44.4702 6.28882 -81.0352
rradius 55.7771
rwrist -28.0253
rhand -31.1062 -1.25775
rfingers 7.12502
rthumb -4.38564 -31.1923
lclavicle -7.55382e-015 -1.70955e-014
lhumerus -50.1224 -24.6327 90.3709
lradius 51.4045
lwrist 11.3148
lhand -29.1286 10.8331
lfingers 7.12502
lthumb -2.47589 40.7985
rfemur -19.4097 19.4888 21.2181
rtibia 35.4849
rfoot -23.3109 -22.1335
rtoes -38.6465
lfemur -18.0111 -13.4531 -18.6953
ltibia 38.0931
lfoot -25.006 15.5685
ltoes -11.6803
